<?xml version="1.0" standalone="no"?>
<!DOCTYPE svg PUBLIC "-//W3C//DTD SVG 20010904//EN"
 "http://www.w3.org/TR/2001/REC-SVG-20010904/DTD/svg10.dtd">
<svg version="1.0" xmlns="http://www.w3.org/2000/svg"
 width="960.000000pt" height="960.000000pt" viewBox="0 0 960.000000 960.000000"
 preserveAspectRatio="xMidYMid meet">
<metadata>
Created by potrace 1.11, written by Peter Selinger 2001-2013
</metadata>
<g transform="translate(0.000000,960.000000) scale(0.100000,-0.100000)"
fill="#000000" stroke="none">
<path d="M5238 7755 c-2 -2 -23 -6 -48 -9 -63 -9 -146 -53 -197 -106 -48 -49
-96 -142 -107 -205 -10 -55 -14 -77 -19 -100 -6 -22 -65 -306 -72 -345 -3 -14
-7 -36 -10 -50 -7 -35 -12 -61 -19 -90 -3 -14 -8 -36 -10 -50 -3 -14 -7 -36
-10 -50 -12 -51 -68 -326 -72 -347 -2 -13 -6 -34 -9 -48 -3 -14 -7 -37 -10
-52 -3 -16 -15 -71 -26 -123 -19 -87 -84 -405 -95 -458 -7 -37 -13 -66 -18
-92 -3 -14 -8 -36 -11 -50 -7 -34 -14 -69 -21 -105 -3 -16 -11 -58 -19 -91 -8
-34 -17 -74 -19 -90 -3 -15 -10 -50 -16 -78 -6 -28 -12 -60 -14 -71 -2 -11
-16 -76 -30 -145 -15 -69 -28 -135 -31 -148 -2 -12 -6 -30 -9 -40 -3 -9 -7
-33 -10 -52 -3 -19 -8 -46 -11 -60 -3 -14 -8 -36 -11 -50 -2 -14 -7 -36 -11
-50 -3 -14 -7 -32 -8 -40 -4 -27 -16 -84 -26 -130 -6 -25 -13 -56 -15 -70 -3
-14 -16 -77 -29 -140 -13 -63 -26 -130 -30 -147 -3 -18 -12 -61 -20 -95 -8
-35 -16 -76 -19 -93 -3 -16 -10 -52 -16 -80 -6 -27 -13 -61 -15 -75 -3 -14 -8
-38 -12 -55 -10 -45 -9 -42 -32 -160 -12 -60 -26 -126 -31 -146 -6 -20 -12
-49 -14 -65 -2 -16 -9 -54 -16 -84 -6 -30 -13 -64 -15 -75 -3 -11 -16 -76 -31
-145 -14 -69 -28 -135 -29 -147 -2 -11 -6 -29 -9 -40 -3 -10 -8 -31 -11 -48
-2 -16 -7 -41 -10 -55 -3 -14 -10 -47 -15 -75 -6 -27 -13 -61 -16 -75 -6 -30
-34 -165 -40 -200 -3 -14 -9 -42 -14 -63 -13 -58 -5 -166 15 -217 31 -75 93
-150 155 -187 156 -93 344 -69 470 59 43 44 81 110 95 163 6 28 90 429 101
485 3 14 23 111 45 217 21 106 44 214 49 240 5 26 12 59 15 73 5 26 11 55 21
105 3 17 14 73 26 125 11 52 22 106 25 120 2 14 15 79 29 145 14 66 27 127 28
135 8 38 19 96 22 105 1 6 18 91 38 190 20 99 41 196 46 215 5 19 12 52 16 74
3 21 8 48 10 60 3 11 7 35 10 51 3 17 9 46 14 65 5 19 12 51 15 70 3 19 22
109 41 199 19 90 37 178 39 195 3 17 10 45 15 61 5 17 11 46 13 65 3 19 26
133 51 253 25 120 48 228 50 240 3 12 14 67 25 122 11 55 22 111 25 125 2 14
14 70 26 125 12 55 23 113 25 129 3 15 7 36 10 46 6 19 11 42 21 94 3 17 28
140 56 275 27 136 52 254 54 264 2 10 5 26 8 35 3 9 8 33 11 52 3 19 19 98 35
175 59 283 62 305 56 370 -14 143 -106 264 -242 314 -45 17 -147 34 -156 26z"/>
<path d="M2260 7146 c-25 -7 -65 -23 -90 -36 -32 -16 -341 -318 -1072 -1048
-1173 -1171 -1092 -1079 -1092 -1252 -1 -177 -85 -80 1080 -1244 560 -560
1037 -1030 1059 -1046 36 -24 93 -48 135 -57 55 -11 165 -2 200 17 11 6 20 8
20 5 0 -12 96 60 133 99 116 124 131 301 38 453 -14 23 -409 425 -877 893
-469 468 -857 857 -864 865 -11 13 116 144 864 891 482 482 876 883 876 890 0
8 4 14 9 14 5 0 18 31 31 69 34 106 29 185 -19 286 -45 93 -130 168 -223 196
-52 16 -158 18 -208 5z"/>
<path d="M7148 7145 c-130 -35 -235 -141 -267 -270 -7 -26 -11 -79 -10 -117 2
-58 8 -82 39 -141 34 -67 94 -130 905 -939 478 -477 866 -871 862 -875 -4 -5
-398 -399 -876 -878 -993 -994 -925 -915 -926 -1090 0 -112 17 -163 81 -241
118 -146 345 -179 499 -74 22 16 498 485 1057 1044 1164 1163 1083 1071 1082
1246 0 174 80 82 -1094 1251 -565 563 -1033 1029 -1041 1034 -69 51 -219 75
-311 50z"/>
</g>
</svg>
